<mxfile host="app.diagrams.net" modified="2022-04-27T14:13:16.677Z" agent="5.0 (Macintosh; Intel Mac OS X 10_15_2) AppleWebKit/537.36 (KHTML, like Gecko) Chrome/101.0.4951.41 Safari/537.36" etag="ipV7z21DHseEEjFto2Ss" version="17.4.6" type="github">
  <diagram id="O400-xOetl1Luc0ltQ6_" name="Page-1">
    <mxGraphModel dx="946" dy="525" grid="1" gridSize="10" guides="1" tooltips="1" connect="1" arrows="1" fold="1" page="1" pageScale="1" pageWidth="1654" pageHeight="2336" math="0" shadow="0">
      <root>
        <mxCell id="0" />
        <mxCell id="1" parent="0" />
        <mxCell id="kwXHbnUYNoz1Og6_vg1k-4" value="" style="shape=flexArrow;endArrow=classic;html=1;rounded=0;" parent="1" edge="1">
          <mxGeometry width="50" height="50" relative="1" as="geometry">
            <mxPoint x="230" y="140" as="sourcePoint" />
            <mxPoint x="860" y="140" as="targetPoint" />
          </mxGeometry>
        </mxCell>
        <mxCell id="kwXHbnUYNoz1Og6_vg1k-11" style="edgeStyle=orthogonalEdgeStyle;rounded=0;orthogonalLoop=1;jettySize=auto;html=1;exitX=0.5;exitY=1;exitDx=0;exitDy=0;entryX=1;entryY=0.5;entryDx=0;entryDy=0;fontSize=14;dashed=1;" parent="1" source="kwXHbnUYNoz1Og6_vg1k-5" target="kwXHbnUYNoz1Og6_vg1k-8" edge="1">
          <mxGeometry relative="1" as="geometry" />
        </mxCell>
        <mxCell id="kwXHbnUYNoz1Og6_vg1k-21" value="return anything" style="edgeLabel;html=1;align=center;verticalAlign=middle;resizable=0;points=[];fontSize=14;" parent="kwXHbnUYNoz1Og6_vg1k-11" vertex="1" connectable="0">
          <mxGeometry x="-0.4846" y="4" relative="1" as="geometry">
            <mxPoint x="56" y="-4" as="offset" />
          </mxGeometry>
        </mxCell>
        <mxCell id="kwXHbnUYNoz1Og6_vg1k-15" style="edgeStyle=orthogonalEdgeStyle;rounded=0;orthogonalLoop=1;jettySize=auto;html=1;exitX=1;exitY=0.5;exitDx=0;exitDy=0;fontSize=14;strokeColor=#FF0000;dashed=1;" parent="1" source="kwXHbnUYNoz1Og6_vg1k-5" target="kwXHbnUYNoz1Og6_vg1k-6" edge="1">
          <mxGeometry relative="1" as="geometry" />
        </mxCell>
        <mxCell id="kwXHbnUYNoz1Og6_vg1k-20" value="中断" style="edgeLabel;html=1;align=center;verticalAlign=middle;resizable=0;points=[];fontSize=14;" parent="kwXHbnUYNoz1Og6_vg1k-15" vertex="1" connectable="0">
          <mxGeometry x="0.125" y="3" relative="1" as="geometry">
            <mxPoint x="-5" y="-7" as="offset" />
          </mxGeometry>
        </mxCell>
        <mxCell id="kwXHbnUYNoz1Og6_vg1k-5" value="&lt;font style=&quot;font-size: 14px&quot;&gt;style-loader&lt;br&gt;pitch&lt;/font&gt;" style="rounded=1;whiteSpace=wrap;html=1;" parent="1" vertex="1">
          <mxGeometry x="290" y="170" width="120" height="60" as="geometry" />
        </mxCell>
        <mxCell id="kwXHbnUYNoz1Og6_vg1k-16" style="edgeStyle=orthogonalEdgeStyle;rounded=0;orthogonalLoop=1;jettySize=auto;html=1;exitX=1;exitY=0.5;exitDx=0;exitDy=0;entryX=0;entryY=0.5;entryDx=0;entryDy=0;fontSize=14;" parent="1" source="kwXHbnUYNoz1Og6_vg1k-6" target="kwXHbnUYNoz1Og6_vg1k-7" edge="1">
          <mxGeometry relative="1" as="geometry" />
        </mxCell>
        <mxCell id="kwXHbnUYNoz1Og6_vg1k-6" value="&lt;font style=&quot;font-size: 14px&quot;&gt;css-loader&lt;br&gt;pitch&lt;/font&gt;" style="rounded=1;whiteSpace=wrap;html=1;" parent="1" vertex="1">
          <mxGeometry x="490" y="170" width="120" height="60" as="geometry" />
        </mxCell>
        <mxCell id="kwXHbnUYNoz1Og6_vg1k-23" style="edgeStyle=orthogonalEdgeStyle;rounded=0;orthogonalLoop=1;jettySize=auto;html=1;exitX=1;exitY=0.5;exitDx=0;exitDy=0;fontSize=14;strokeColor=#000000;" parent="1" source="kwXHbnUYNoz1Og6_vg1k-7" target="kwXHbnUYNoz1Og6_vg1k-22" edge="1">
          <mxGeometry relative="1" as="geometry" />
        </mxCell>
        <mxCell id="kwXHbnUYNoz1Og6_vg1k-7" value="&lt;font style=&quot;font-size: 14px&quot;&gt;less-loader&lt;br&gt;pitch&lt;/font&gt;" style="rounded=1;whiteSpace=wrap;html=1;" parent="1" vertex="1">
          <mxGeometry x="680" y="170" width="120" height="60" as="geometry" />
        </mxCell>
        <mxCell id="kwXHbnUYNoz1Og6_vg1k-10" style="edgeStyle=orthogonalEdgeStyle;rounded=0;orthogonalLoop=1;jettySize=auto;html=1;exitX=0.5;exitY=0;exitDx=0;exitDy=0;entryX=0;entryY=0.5;entryDx=0;entryDy=0;fontSize=14;" parent="1" source="kwXHbnUYNoz1Og6_vg1k-8" target="kwXHbnUYNoz1Og6_vg1k-5" edge="1">
          <mxGeometry relative="1" as="geometry" />
        </mxCell>
        <mxCell id="kwXHbnUYNoz1Og6_vg1k-8" value="webpack&lt;br&gt;loader-runner" style="rounded=1;whiteSpace=wrap;html=1;fontSize=14;" parent="1" vertex="1">
          <mxGeometry x="150" y="250" width="120" height="60" as="geometry" />
        </mxCell>
        <mxCell id="kwXHbnUYNoz1Og6_vg1k-25" style="edgeStyle=orthogonalEdgeStyle;rounded=0;orthogonalLoop=1;jettySize=auto;html=1;exitX=0;exitY=0.5;exitDx=0;exitDy=0;entryX=0.5;entryY=1;entryDx=0;entryDy=0;fontSize=14;strokeColor=#000000;" parent="1" source="kwXHbnUYNoz1Og6_vg1k-12" target="kwXHbnUYNoz1Og6_vg1k-8" edge="1">
          <mxGeometry relative="1" as="geometry" />
        </mxCell>
        <mxCell id="kwXHbnUYNoz1Og6_vg1k-12" value="&lt;font style=&quot;font-size: 14px&quot;&gt;style-loader&lt;br&gt;&lt;/font&gt;" style="rounded=1;whiteSpace=wrap;html=1;" parent="1" vertex="1">
          <mxGeometry x="290" y="330" width="120" height="60" as="geometry" />
        </mxCell>
        <mxCell id="kwXHbnUYNoz1Og6_vg1k-18" style="edgeStyle=orthogonalEdgeStyle;rounded=0;orthogonalLoop=1;jettySize=auto;html=1;exitX=0;exitY=0.5;exitDx=0;exitDy=0;fontSize=14;" parent="1" source="kwXHbnUYNoz1Og6_vg1k-13" target="kwXHbnUYNoz1Og6_vg1k-12" edge="1">
          <mxGeometry relative="1" as="geometry">
            <mxPoint x="450" y="360" as="targetPoint" />
          </mxGeometry>
        </mxCell>
        <mxCell id="kwXHbnUYNoz1Og6_vg1k-13" value="&lt;font style=&quot;font-size: 14px&quot;&gt;css-loader&lt;br&gt;&lt;/font&gt;" style="rounded=1;whiteSpace=wrap;html=1;" parent="1" vertex="1">
          <mxGeometry x="490" y="330" width="120" height="60" as="geometry" />
        </mxCell>
        <mxCell id="kwXHbnUYNoz1Og6_vg1k-17" style="edgeStyle=orthogonalEdgeStyle;rounded=0;orthogonalLoop=1;jettySize=auto;html=1;exitX=0;exitY=0.5;exitDx=0;exitDy=0;entryX=1;entryY=0.5;entryDx=0;entryDy=0;fontSize=14;" parent="1" source="kwXHbnUYNoz1Og6_vg1k-14" target="kwXHbnUYNoz1Og6_vg1k-13" edge="1">
          <mxGeometry relative="1" as="geometry" />
        </mxCell>
        <mxCell id="kwXHbnUYNoz1Og6_vg1k-14" value="&lt;font style=&quot;font-size: 14px&quot;&gt;less-loader&lt;br&gt;&lt;/font&gt;" style="rounded=1;whiteSpace=wrap;html=1;" parent="1" vertex="1">
          <mxGeometry x="680" y="330" width="120" height="60" as="geometry" />
        </mxCell>
        <mxCell id="kwXHbnUYNoz1Og6_vg1k-19" value="" style="shape=flexArrow;endArrow=classic;html=1;rounded=0;" parent="1" edge="1">
          <mxGeometry width="50" height="50" relative="1" as="geometry">
            <mxPoint x="860" y="420" as="sourcePoint" />
            <mxPoint x="230" y="420" as="targetPoint" />
          </mxGeometry>
        </mxCell>
        <mxCell id="kwXHbnUYNoz1Og6_vg1k-24" style="edgeStyle=orthogonalEdgeStyle;rounded=0;orthogonalLoop=1;jettySize=auto;html=1;exitX=0.5;exitY=1;exitDx=0;exitDy=0;entryX=1;entryY=0.5;entryDx=0;entryDy=0;fontSize=14;strokeColor=#000000;" parent="1" source="kwXHbnUYNoz1Og6_vg1k-22" target="kwXHbnUYNoz1Og6_vg1k-14" edge="1">
          <mxGeometry relative="1" as="geometry" />
        </mxCell>
        <mxCell id="kwXHbnUYNoz1Og6_vg1k-22" value="file" style="rounded=1;whiteSpace=wrap;html=1;fontSize=14;" parent="1" vertex="1">
          <mxGeometry x="827" y="250" width="120" height="60" as="geometry" />
        </mxCell>
        <mxCell id="kwXHbnUYNoz1Og6_vg1k-26" value="pitch 阶段" style="text;html=1;align=center;verticalAlign=middle;resizable=0;points=[];autosize=1;strokeColor=none;fillColor=none;fontSize=14;" parent="1" vertex="1">
          <mxGeometry x="510" y="100" width="80" height="20" as="geometry" />
        </mxCell>
        <mxCell id="kwXHbnUYNoz1Og6_vg1k-27" value="&lt;span style=&quot;color: rgb(0 , 0 , 0) ; font-family: &amp;#34;helvetica&amp;#34; ; font-size: 14px ; font-style: normal ; font-weight: 400 ; letter-spacing: normal ; text-align: center ; text-indent: 0px ; text-transform: none ; word-spacing: 0px ; background-color: rgb(248 , 249 , 250) ; display: inline ; float: none&quot;&gt;normal 阶段&lt;/span&gt;" style="text;whiteSpace=wrap;html=1;fontSize=14;" parent="1" vertex="1">
          <mxGeometry x="505" y="440" width="90" height="30" as="geometry" />
        </mxCell>
      </root>
    </mxGraphModel>
  </diagram>
</mxfile>
